<?xml version="1.0" encoding="utf-8"?>
<!-- Generator: Adobe Illustrator 16.0.0, SVG Export Plug-In . SVG Version: 6.00 Build 0)  -->
<!DOCTYPE svg PUBLIC "-//W3C//DTD SVG 1.1//EN" "http://www.w3.org/Graphics/SVG/1.1/DTD/svg11.dtd">
<svg version="1.1" id="Layer_1" xmlns="http://www.w3.org/2000/svg" xmlns:xlink="http://www.w3.org/1999/xlink" x="0px" y="0px"
	 width="595.281px" height="841.89px" viewBox="0 0 595.281 841.89" enable-background="new 0 0 595.281 841.89"
	 xml:space="preserve">
<title>arrow-left-other</title>
<path fill="#1BB200" stroke="#1BB500" stroke-miterlimit="10" d="M297.64,718.585C133.52,718.585,0,585.066,0,420.945
	c0-164.121,133.52-297.641,297.64-297.641c164.121,0,297.641,133.52,297.641,297.641
	C595.281,585.066,461.761,718.585,297.64,718.585z M297.64,136.536c-156.819,0-284.409,127.59-284.409,284.409
	c0,156.82,127.59,284.41,284.409,284.41c156.818,0,284.408-127.59,284.408-284.41C582.048,264.126,454.458,136.536,297.64,136.536z"
	/>
<path fill="#1BB200" stroke="#1BB500" stroke-miterlimit="10" d="M271.178,506.982c-1.747-0.006-3.419-0.705-4.651-1.941
	l-79.34-79.445c-2.547-2.576-2.547-6.724,0-9.301l79.375-79.375c2.847-2.29,7.011-1.839,9.301,1.008
	c1.947,2.421,1.947,5.872,0,8.293l-74.724,74.724l74.689,74.689c2.582,2.586,2.578,6.773-0.008,9.355
	c-1.233,1.23-2.901,1.926-4.643,1.934V506.982z"/>
<path fill="#1BB200" stroke="#1BB500" stroke-miterlimit="10" d="M456.378,427.56h-264.54c-3.654,0-6.616-2.961-6.616-6.615
	s2.962-6.616,6.616-6.616h264.54c3.652,0,6.615,2.962,6.615,6.616S460.031,427.56,456.378,427.56z"/>
</svg>
