<?xml version="1.0" encoding="utf-8"?>
<!-- Generator: Adobe Illustrator 16.0.0, SVG Export Plug-In . SVG Version: 6.00 Build 0)  -->
<!DOCTYPE svg PUBLIC "-//W3C//DTD SVG 1.1//EN" "http://www.w3.org/Graphics/SVG/1.1/DTD/svg11.dtd">
<svg version="1.1" id="Layer_1" xmlns="http://www.w3.org/2000/svg" xmlns:xlink="http://www.w3.org/1999/xlink" x="0px" y="0px"
	 width="595.281px" height="841.89px" viewBox="0 0 595.281 841.89" enable-background="new 0 0 595.281 841.89"
	 xml:space="preserve">
<title>arrow-right-other</title>
<path fill="#1BB200" d="M297.64,718.585C133.52,718.585,0,585.066,0,420.945c0-164.121,133.52-297.641,297.64-297.641
	c164.121,0,297.641,133.52,297.641,297.641C595.281,585.066,461.761,718.585,297.64,718.585z M297.64,136.536
	c-156.819,0-284.409,127.59-284.409,284.409c0,156.82,127.59,284.41,284.409,284.41c156.818,0,284.408-127.59,284.408-284.41
	C582.048,264.126,454.458,136.536,297.64,136.536z"/>
<path fill="#1BB200" d="M324.103,506.982c-3.654-0.018-6.602-2.994-6.586-6.646c0.01-1.742,0.703-3.41,1.934-4.643l74.689-74.748
	l-74.689-74.689c-2.289-2.847-1.838-7.011,1.01-9.301c2.42-1.947,5.871-1.947,8.293,0l79.34,79.34c2.547,2.577,2.547,6.725,0,9.301
	l-79.375,79.375C327.505,506.224,325.847,506.949,324.103,506.982z"/>
<path fill="#1BB200" d="M403.443,427.56h-264.54c-3.654,0-6.616-2.961-6.616-6.615s2.962-6.616,6.616-6.616l0,0h264.54
	c3.652,0,6.615,2.962,6.615,6.616S407.095,427.56,403.443,427.56z"/>
</svg>
